<svg width="20" height="20" viewBox="0 0 20 20" fill="none" xmlns="http://www.w3.org/2000/svg">
<g clip-path="url(#clip0_437_7811)">
<mask id="mask0_437_7811" style="mask-type:alpha" maskUnits="userSpaceOnUse" x="0" y="0" width="20" height="20">
<rect width="20" height="20" fill="#D9D9D9"/>
</mask>
<g mask="url(#mask0_437_7811)">
<path d="M11.75 9C11.5375 9 11.3594 8.92854 11.2156 8.78563C11.0719 8.64271 11 8.46563 11 8.25438C11 8.04313 11.0719 7.86458 11.2156 7.71875C11.3594 7.57292 11.5375 7.5 11.75 7.5H14.25C14.4625 7.5 14.6406 7.57146 14.7844 7.71437C14.9281 7.85729 15 8.03437 15 8.24562C15 8.45687 14.9281 8.63542 14.7844 8.78125C14.6406 8.92708 14.4625 9 14.25 9H11.75ZM11.7558 6C11.5436 6 11.3646 5.92854 11.2188 5.78563C11.0729 5.64271 11 5.46563 11 5.25438C11 5.04313 11.0718 4.86458 11.2154 4.71875C11.359 4.57292 11.5369 4.5 11.7492 4.5H16.2442C16.4564 4.5 16.6354 4.57146 16.7812 4.71437C16.9271 4.85729 17 5.03437 17 5.24562C17 5.45687 16.9282 5.63542 16.7846 5.78125C16.641 5.92708 16.4631 6 16.2508 6H11.7558ZM6.99521 17C5.88729 17 4.94444 16.61 4.16667 15.83C3.38889 15.05 3 14.1067 3 13C3 12.3056 3.15625 11.6667 3.46875 11.0833C3.78125 10.5 4.20833 10.0347 4.75 9.6875V5.25C4.75 4.625 4.96875 4.09375 5.40625 3.65625C5.84375 3.21875 6.375 3 7 3C7.625 3 8.15625 3.21875 8.59375 3.65625C9.03125 4.09375 9.25 4.625 9.25 5.25V9.6875C9.79167 10.0347 10.2188 10.5 10.5312 11.0833C10.8438 11.6667 11 12.3056 11 13C11 14.1067 10.6095 15.05 9.82854 15.83C9.04771 16.61 8.10326 17 6.99521 17ZM4.5 13H9.5C9.5 12.6528 9.42708 12.3229 9.28125 12.0104C9.13542 11.6979 8.92361 11.4236 8.64583 11.1875L7.75 10.5V5.25C7.75 5.0375 7.67854 4.85937 7.53562 4.71562C7.39271 4.57187 7.21562 4.5 7.00437 4.5C6.79312 4.5 6.61458 4.57187 6.46875 4.71562C6.32292 4.85937 6.25 5.0375 6.25 5.25V10.5L5.375 11.1875C5.09722 11.4375 4.88194 11.7222 4.72917 12.0417C4.57639 12.3611 4.5 12.6806 4.5 13Z" fill="#BAC8DE"/>
</g>
</g>
<defs>
<clipPath id="clip0_437_7811">
<rect width="20" height="20" fill="white"/>
</clipPath>
</defs>
</svg>
